<svg xmlns="http://www.w3.org/2000/svg" viewBox="0 0 800 450" role="img" aria-label="Real estate investment portal with land parcel map">
  <defs>
    <linearGradient id="bg" x1="0" y1="0" x2="1" y2="1"><stop offset="0" stop-color="#0f172a"/><stop offset="1" stop-color="#1e293b"/></linearGradient>
  </defs>
  <rect width="800" height="450" fill="url(#bg)"/>
  <!-- parcel map -->
  <g transform="translate(50 60)">
    <rect width="400" height="300" rx="14" fill="#14532d" opacity=".35"/>
    <rect width="400" height="300" rx="14" fill="none" stroke="#334155"/>
    <g stroke="#86efac" stroke-opacity=".35" stroke-width="2" fill="none">
      <path d="M0 110C90 90 150 140 240 120S360 70 400 90"/>
      <path d="M130 0C150 80 120 170 160 300"/>
      <path d="M290 0C270 90 320 190 300 300"/>
    </g>
    <g stroke="#fff" stroke-opacity=".7" stroke-width="2">
      <path d="M26 24L120 20L126 96L30 104Z" fill="#f97316" fill-opacity=".55"/>
      <path d="M142 20L276 26L270 120L148 112Z" fill="#fb923c" fill-opacity=".25"/>
      <path d="M296 30L376 34L372 128L290 124Z" fill="#fb923c" fill-opacity=".25"/>
      <path d="M30 124L126 118L132 214L36 226Z" fill="#fb923c" fill-opacity=".25"/>
      <path d="M150 134L268 140L276 238L158 232Z" fill="#f97316" fill-opacity=".55"/>
      <path d="M292 146L372 150L378 256L296 252Z" fill="#fb923c" fill-opacity=".25"/>
      <path d="M40 244L136 236L142 276L46 280Z" fill="#fb923c" fill-opacity=".25"/>
    </g>
    <!-- pin -->
    <g transform="translate(206 150)"><path d="M0 0C-16 -22 -16 -40 0 -40C16 -40 16 -22 0 0Z" fill="#fff"/><circle cx="0" cy="-26" r="6" fill="#f97316"/></g>
    <text x="20" y="288" font-family="ui-sans-serif,system-ui" font-size="11" fill="#bbf7d0" opacity=".8" letter-spacing="1">LAND PARCELS</text>
  </g>
  <!-- investor portal card -->
  <g transform="translate(480 60)" font-family="ui-sans-serif,system-ui">
    <rect width="270" height="300" rx="14" fill="#f8fafc"/>
    <rect x="18" y="20" width="110" height="12" rx="3" fill="#0f172a"/>
    <rect x="18" y="40" width="160" height="7" rx="3" fill="#94a3b8"/>
    <g transform="translate(18 66)">
      <rect width="234" height="64" rx="10" fill="#fff7ed" stroke="#fdba74"/>
      <rect x="14" y="14" width="90" height="9" rx="3" fill="#9a3412"/>
      <rect x="14" y="32" width="130" height="6" rx="3" fill="#fdba74"/>
      <rect x="14" y="44" width="150" height="6" rx="3" fill="#fed7aa"/>
      <rect x="160" y="18" width="62" height="28" rx="8" fill="#f97316"/><text x="191" y="37" text-anchor="middle" font-size="12" font-weight="700" fill="#fff">Invest</text>
    </g>
    <g transform="translate(18 144)">
      <rect width="234" height="64" rx="10" fill="#f1f5f9"/>
      <rect x="14" y="14" width="80" height="9" rx="3" fill="#475569"/>
      <rect x="14" y="32" width="140" height="6" rx="3" fill="#cbd5e1"/>
      <rect x="14" y="44" width="110" height="6" rx="3" fill="#cbd5e1"/>
      <rect x="160" y="18" width="62" height="28" rx="8" fill="#e2e8f0"/><text x="191" y="37" text-anchor="middle" font-size="12" font-weight="700" fill="#475569">View</text>
    </g>
    <g transform="translate(18 222)">
      <rect width="234" height="58" rx="10" fill="#0f172a"/>
      <text x="14" y="26" font-size="11" fill="#94a3b8">PROJECT FUNDING</text>
      <rect x="14" y="36" width="206" height="8" rx="4" fill="#334155"/><rect x="14" y="36" width="130" height="8" rx="4" fill="#f97316"/>
    </g>
  </g>
  <g font-family="ui-sans-serif,system-ui">
    <text x="50" y="410" font-size="22" font-weight="800" fill="#fff">Next.js · TypeScript · PostgreSQL</text>
    <rect x="50" y="418" width="46" height="4" rx="2" fill="#f97316"/>
  </g>
</svg>
